<svg xmlns="http://www.w3.org/2000/svg" viewBox="0 0 100 100">
  <rect width="100" height="100" fill="#db2777"/>
  <polygon points="24,42 16,16 40,32" fill="white" opacity="0.95"/>
  <polygon points="76,42 84,16 60,32" fill="white" opacity="0.95"/>
  <polygon points="27,40 21,20 38,31" fill="#db2777"/>
  <polygon points="73,40 79,20 62,31" fill="#db2777"/>
  <circle cx="50" cy="55" r="27" fill="white" opacity="0.95"/>
  <ellipse cx="39" cy="49" rx="5" ry="6" fill="#1a1a2e"/>
  <ellipse cx="61" cy="49" rx="5" ry="6" fill="#1a1a2e"/>
  <circle cx="40" cy="47" r="2" fill="white"/>
  <circle cx="62" cy="47" r="2" fill="white"/>
  <ellipse cx="50" cy="59" rx="3" ry="2" fill="#db2777"/>
  <path d="M46,63 Q50,67 54,63" stroke="#db2777" stroke-width="1.5" fill="none"/>
  <line x1="19" y1="57" x2="42" y2="59" stroke="#db2777" stroke-width="1.5"/>
  <line x1="19" y1="62" x2="42" y2="62" stroke="#db2777" stroke-width="1.5"/>
  <line x1="58" y1="59" x2="81" y2="57" stroke="#db2777" stroke-width="1.5"/>
  <line x1="58" y1="62" x2="81" y2="62" stroke="#db2777" stroke-width="1.5"/>
</svg>
